<?xml version="1.0" standalone="no"?>
<!DOCTYPE svg PUBLIC "-//W3C//DTD SVG 20010904//EN"
 "http://www.w3.org/TR/2001/REC-SVG-20010904/DTD/svg10.dtd">
<svg version="1.0" xmlns="http://www.w3.org/2000/svg"
 width="64.000000pt" height="64.000000pt" viewBox="0 0 64.000000 64.000000"
 preserveAspectRatio="xMidYMid meet">

<g transform="translate(0.000000,64.000000) scale(0.100000,-0.100000)"
fill="#000000" stroke="none">
<path d="M350 495 c-7 -8 -8 -15 -2 -15 5 0 15 7 22 15 7 8 8 15 2 15 -5 0
-15 -7 -22 -15z"/>
<path d="M353 465 c-25 -18 -32 -65 -9 -65 21 0 38 26 34 55 -3 24 -4 25 -25
10z"/>
<path d="M404 382 c-17 -11 -14 -74 4 -67 7 3 16 5 18 5 2 0 4 4 4 10 0 5 -8
7 -17 4 -16 -5 -16 -4 -2 8 9 7 16 21 16 31 0 18 -6 21 -23 9z"/>
<path d="M350 350 c-21 -13 -22 -53 -1 -46 14 5 14 5 1 -6 -19 -16 -25 -62 -7
-52 8 5 8 3 0 -7 -20 -21 -17 -52 5 -45 16 6 16 5 0 -8 -10 -7 -18 -16 -18
-19 0 -4 8 -4 18 -1 16 5 16 5 0 -6 -20 -12 -25 -35 -5 -24 8 5 8 2 -2 -9 -7
-9 -10 -17 -5 -17 22 1 31 19 30 63 0 39 -3 47 -15 42 -14 -4 -14 -4 -1 7 19
16 25 62 7 52 -8 -5 -8 -3 1 7 19 21 16 52 -5 45 -15 -5 -15 -4 1 9 22 17 18
29 -4 15z"/>
<path d="M403 303 c-20 -7 -15 -23 5 -17 15 5 15 4 1 -8 -15 -13 -22 -78 -8
-78 3 0 13 8 20 17 12 15 12 16 -6 10 -17 -6 -18 -5 -4 5 8 7 15 28 15 46 0
33 -1 34 -23 25z"/>
<path d="M403 193 c-20 -7 -15 -23 5 -17 16 5 16 5 0 -6 -25 -15 -23 -34 1
-20 11 5 19 19 18 30 -1 21 -3 22 -24 13z"/>
<path d="M200 126 c0 -18 9 -30 30 -41 23 -12 30 -13 31 -3 0 7 4 3 9 -9 15
-38 52 -39 115 -3 43 25 55 37 55 56 l0 25 -63 -35 c-35 -20 -68 -32 -73 -27
-5 4 -30 20 -56 35 l-48 27 0 -25z"/>
</g>
</svg>
