<?xml version="1.0" standalone="no"?>
<!DOCTYPE svg PUBLIC "-//W3C//DTD SVG 20010904//EN"
 "http://www.w3.org/TR/2001/REC-SVG-20010904/DTD/svg10.dtd">
<svg version="1.0" xmlns="http://www.w3.org/2000/svg"
 width="64.000000pt" height="64.000000pt" viewBox="0 0 64.000000 64.000000"
 preserveAspectRatio="xMidYMid meet">

<g transform="translate(0.000000,64.000000) scale(0.100000,-0.100000)"
fill="#000000" stroke="none">
<path d="M282 534 c-71 -41 -71 -44 11 -88 l54 -29 67 38 c37 20 66 39 64 40
-6 6 -126 75 -130 75 -2 -1 -31 -17 -66 -36z m98 6 c0 -13 -26 -19 -41 -9 -12
8 -12 10 0 18 15 10 41 4 41 -9z m-45 -19 c3 -5 1 -13 -5 -16 -15 -9 -43 3
-35 15 8 13 32 13 40 1z"/>
<path d="M190 447 c0 -17 14 -30 62 -57 35 -19 66 -36 70 -38 5 -2 8 7 8 20 0
18 -15 32 -65 61 -35 20 -66 37 -69 37 -3 0 -6 -10 -6 -23z"/>
<path d="M343 300 c-29 -17 -53 -33 -53 -36 0 -5 88 43 105 58 17 15 0 8 -52
-22z"/>
<path d="M446 287 c-11 -8 -16 -20 -13 -28 4 -9 6 -7 6 6 1 17 3 17 11 5 8
-13 10 -13 10 2 0 9 6 19 13 21 6 3 7 6 1 6 -5 1 -18 -5 -28 -12z"/>
<path d="M367 273 c-11 -10 -8 -81 3 -88 6 -4 10 13 10 44 0 52 -1 56 -13 44z"/>
<path d="M161 236 c-1 -22 -5 -27 -18 -22 -15 5 -14 3 2 -10 19 -14 20 -14 23
6 2 11 1 28 -1 38 -3 10 -5 5 -6 -12z"/>
<path d="M445 145 c-77 -46 -143 -84 -146 -84 -4 -1 -61 31 -128 70 -68 39
-125 68 -128 66 -5 -6 5 -13 139 -91 53 -31 102 -56 109 -56 13 0 309 169 309
176 0 10 -23 -2 -155 -81z"/>
<path d="M180 186 c0 -3 14 -12 30 -21 17 -9 30 -13 30 -11 0 3 -13 12 -30 21
-16 9 -30 13 -30 11z"/>
</g>
</svg>
