<svg xmlns="http://www.w3.org/2000/svg" width="24" height="24" viewBox="0 0 24 24" fill="none">
<path d="M15.1978 13.0613C15.277 11.5252 14.5481 10.6733 12.5191 10.12C11.0672 9.72093 10.7532 9.44611 10.7865 8.8147C10.8096 8.36853 11.0899 7.81868 11.9737 7.79626C12.7806 7.77821 13.0575 8.14954 13.1753 8.50629C13.2386 8.69327 13.4102 8.80861 13.6047 8.80702L14.6169 8.78144C14.9442 8.77526 15.1974 8.43344 15.1162 8.11002C14.9192 7.32942 14.3918 6.65077 13.2845 6.38969C13.0686 6.33822 12.918 6.14145 12.9287 5.90366C12.9421 5.62266 12.7394 5.39993 12.4708 5.4075L11.8024 5.42419C11.5338 5.43176 11.3045 5.66129 11.2911 5.9423L11.291 5.97475C11.2782 6.20322 11.1225 6.40203 10.9113 6.47124C9.75886 6.84284 8.87224 7.73388 8.80258 9.06001C8.73292 10.3861 9.36611 11.3007 11.6588 11.9453C12.9178 12.298 13.2599 12.6338 13.2238 13.3409C13.1956 13.9183 12.8431 14.4386 11.8208 14.4624C11.1157 14.4782 10.6288 14.1483 10.4289 13.5856C10.3611 13.4001 10.1832 13.2892 9.98695 13.2939L8.98207 13.3196C8.66205 13.326 8.403 13.6522 8.47865 13.9724C8.70357 14.9237 9.39642 15.6124 10.5054 15.8704C10.7213 15.9219 10.8674 16.1201 10.8557 16.3532L10.8439 16.5864C10.8305 16.8674 11.0332 17.0901 11.3018 17.0825L11.9821 17.0646C12.2507 17.057 12.48 16.8275 12.4934 16.5465L12.5069 16.3103C12.5204 16.0741 12.6842 15.8678 12.9094 15.8066C14.2264 15.4528 15.1191 14.5449 15.1967 13.0567L15.1978 13.0613Z" fill="#2E6488"/>
<rect x="8" y="19" width="8" height="2" rx="1" fill="#2E6488"/>
</svg>